<?xml version="1.0" standalone="no"?>
<!DOCTYPE svg PUBLIC "-//W3C//DTD SVG 20010904//EN"
 "http://www.w3.org/TR/2001/REC-SVG-20010904/DTD/svg10.dtd">
<svg version="1.0" xmlns="http://www.w3.org/2000/svg"
 width="200.000000pt" height="200.000000pt" viewBox="0 0 200.000000 200.000000"
 preserveAspectRatio="xMidYMid meet">

<g transform="translate(0.000000,200.000000) scale(0.100000,-0.100000)"
fill="#000000" stroke="none">
<path d="M0 1000 l0 -1000 1000 0 1000 0 0 1000 0 1000 -1000 0 -1000 0 0
-1000z m1338 570 l321 -185 0 -385 0 -385 -322 -185 c-177 -102 -329 -185
-337 -185 -9 0 -160 83 -337 185 l-322 185 0 385 0 385 322 187 c177 102 329
186 337 185 9 -1 161 -85 338 -187z"/>
<path d="M765 1400 l-220 -128 0 -272 0 -272 215 -125 c118 -69 222 -127 231
-130 9 -3 115 53 240 125 l224 130 0 272 0 272 -222 129 c-123 71 -229 129
-235 128 -7 0 -112 -58 -233 -129z m391 -132 c79 -46 142 -87 141 -92 -2 -4
-28 -22 -60 -40 l-57 -31 -37 20 c-21 12 -62 34 -91 50 l-53 30 -51 -28 c-28
-16 -69 -40 -90 -53 l-38 -24 0 -103 0 -102 85 -47 c47 -27 90 -48 95 -48 6 0
46 20 89 45 43 25 84 45 91 45 16 0 120 -59 120 -68 0 -10 -284 -172 -300
-172 -7 0 -80 39 -162 86 l-148 86 0 178 0 179 148 85 c81 47 153 86 161 86 8
0 79 -37 157 -82z"/>
</g>
</svg>
